# xmcd
# 
# Track frame offsets:
#     150
#     14265
#     29612
#     43187
#     55162
#     67152
#     81192
#     90295
#     101042
#     118365
#     131812
#     146055
#     162385
#     171612
#     185462
#     200772
#     212485
#     223962
#     238770
#     254490
#     266347
#     280375
#     293390
#     304925
#     318065
#     332235
# 
# Disc length: 4583
# 
# Revision: 1
# Processed by: cddbd v1.5.2PL0 Copyright (c) Steve Scherf et al.
# Submitted via: fre:ac v1.0.17
# 
DISCID=9e11e51a
DTITLE=B. B. KING - THE COMPLETE RPM - KENT RECORDING BOX, CD7
DYEAR=2015
DGENRE=Blues
TTITLE0=Army Of The Lord
TTITLE1=Precious Lord
TTITLE2=Rock Me Baby
TTITLE3=I Can't Lose
TTITLE4=You're Gonna Miss Me
TTITLE5=Let Me Love You
TTITLE6=Beautician Blues
TTITLE7=I Can Hear My Name
TTITLE8=The Worst Thing In My Life
TTITLE9=Got 'Em Bad
TTITLE10=Baby, Look At You
TTITLE11=Blue Shadows
TTITLE12=And Like That
TTITLE13=Just A Dream
TTITLE14=Broken Promise
TTITLE15=Mercy, Mercy Baby
TTITLE16=Eyesight To The Blind
TTITLE17=Just Like A Woman
TTITLE18=5 Long Years
TTITLE19=Love, Honor And Obey
TTITLE20=Ain't Nobody's Business
TTITLE21=I Wonder Why
TTITLE22=I Stay In The Mood
TTITLE23=Early Every Morning (aka Early In The Morning)
TTITLE24=Blues Stay Away
TTITLE25=It's A Mean World
EXTD=
EXTT0=
EXTT1=
EXTT2=
EXTT3=
EXTT4=
EXTT5=
EXTT6=
EXTT7=
EXTT8=
EXTT9=
EXTT10=
EXTT11=
EXTT12=
EXTT13=
EXTT14=
EXTT15=
EXTT16=
EXTT17=
EXTT18=
EXTT19=
EXTT20=
EXTT21=
EXTT22=
EXTT23=
EXTT24=
EXTT25=
PLAYORDER=
